<?xml version="1.0" encoding="UTF-8" standalone="no" ?>
<!DOCTYPE svg PUBLIC "-//W3C//DTD SVG 1.1//EN" "http://www.w3.org/Graphics/SVG/1.1/DTD/svg11.dtd">
<svg xmlns="http://www.w3.org/2000/svg" xmlns:xlink="http://www.w3.org/1999/xlink" version="1.1" width="88" height="83" viewBox="0 0 88 83" xml:space="preserve">
<desc>Created with Fabric.js 3.6.6</desc>
<defs>
</defs>
<g transform="matrix(1 0 0 1 44.23 41.51)"  >
<g style=""   >
		<g transform="matrix(1 0 0 1 -13.23 -12.39)"  >
<rect style="stroke: none; stroke-width: 2; stroke-dasharray: none; stroke-linecap: butt; stroke-dashoffset: 0; stroke-linejoin: miter; stroke-miterlimit: 4; fill: rgb(51,51,51); fill-opacity: 0; fill-rule: nonzero; opacity: 1;"  x="-30" y="-28.115" rx="0" ry="0" width="60" height="56.23" />
</g>
		<g transform="matrix(1 0 0 1 0.25 0.25)"  >
<path style="stroke: none; stroke-width: 1; stroke-dasharray: none; stroke-linecap: butt; stroke-dashoffset: 0; stroke-linejoin: miter; stroke-miterlimit: 4; fill: rgb(29,152,210); fill-rule: nonzero; opacity: 1;"  transform=" translate(-43.48, -40.75)" d="M 0 36.84 a 14.77 14.77 0 0 1 4.14 2.55 c 7 6.46 12.48 14.16 17.59 22.14 a 47 47 0 0 0 6.48 8.63 c 3.06 3 6.26 3 9.15 -0.18 c 4.13 -4.52 6 -10.28 8.27 -15.79 C 51 41.12 56.12 27.94 64.45 16.34 A 71.5 71.5 0 0 1 78 1.87 A 9.45 9.45 0 0 1 81.2 0 c 0.71 0.93 0 1.58 -0.44 2.27 A 31.32 31.32 0 0 0 78 7.86 a 9.41 9.41 0 0 0 1.36 9.74 c 17.16 23.52 3.74 57.45 -24.8 63.06 A 40.41 40.41 0 0 1 6.8 49.32 a 23 23 0 0 0 -4.91 -9.4 A 6 6 0 0 1 0 36.84 z" stroke-linecap="round" />
</g>
		<g transform="matrix(1 0 0 1 -7.54 -17.69)"  >
<path style="stroke: none; stroke-width: 1; stroke-dasharray: none; stroke-linecap: butt; stroke-dashoffset: 0; stroke-linejoin: miter; stroke-miterlimit: 4; fill: rgb(26,27,29); fill-rule: nonzero; opacity: 1;"  transform=" translate(-35.69, -22.81)" d="M 64.83 5.25 a 69.78 69.78 0 0 0 -21.5 19.16 c -2.7 3.66 -5.15 7.51 -7.71 11.27 c -0.8 1.17 -1.56 2.38 -2.38 3.54 c -5 7 -7.54 7.44 -14.49 2.65 c -3.44 -2.38 -6.91 -4.7 -10.9 -6 c -1.33 -0.45 -1.4 -1.18 -1.23 -2.38 C 8.83 17.57 24.71 2.53 40.79 0.9 a 43.91 43.91 0 0 1 19.06 1.9 a 15.19 15.19 0 0 1 4.98 2.45 z" stroke-linecap="round" />
</g>
</g>
</g>
</svg>